# xmcd
#
# Track frame offsets: 
#        150
#        21731
#        38166
#        59150
#        82442
#        105155
#        116760
#        132483
#        150872
#        186299
#        212789
#        251548
#
# Disc length: 4526 seconds
#
# Revision: 0
# Processed by: cddbd v1.5.2PL0 Copyright (c) Steve Scherf et al.
# Submitted via: ExactAudioCopyFreeDBPlugin 1.0
#
DISCID=af11ac0c
DTITLE=Yolanda Bush and The Road Band - Baltic Blues
DYEAR=2012
DGENRE=Blues
TTITLE0=Wild Women Don't Get the Blues
TTITLE1=Black Drawers
TTITLE2=Down Home Blues
TTITLE3=Calypso Woman Blues
TTITLE4=Going To Chicago
TTITLE5=Can't Take My Soul
TTITLE6=One By One
TTITLE7=Come Together
TTITLE8=Stormy Monday
TTITLE9=Summertime
TTITLE10=Trading Places
TTITLE11=Video Bonus
EXTD=
EXTT0=
EXTT1=
EXTT2=
EXTT3=
EXTT4=
EXTT5=
EXTT6=
EXTT7=
EXTT8=
EXTT9=
EXTT10=
EXTT11=
PLAYORDER=
